<?xml version="1.0" encoding="UTF-8"?>
<svg id="Layer_1" xmlns="http://www.w3.org/2000/svg" version="1.1" viewBox="0 0 530.65 576">
	<!-- Generator: Adobe Illustrator 29.0.1, SVG Export Plug-In . SVG Version: 2.1.0 Build 192)	-->
	<defs>
		<style>
			.st0 {
				fill:rgb(255, 255, 255);
			}

			.st1 {
				fill: #d47f28;
			}

			.st2 {
				fill: #808285;
			}

			.st3 {
				fill: #b1b3b6;
			}
		</style>
	</defs>
	<g>
		<path class="st0" d="M129.03,430.43h15.32v68.7h-15.32l-32.73-43.03v43.03h-15.33v-68.7h14.35l33.71,44.23v-44.23Z"/>
		<path class="st0" d="M193.53,485.57c7.53,0,13.7-2.98,18.48-8.95l9.83,10.13c-7.8,8.8-16.98,13.19-27.57,13.19s-19.31-3.35-26.15-10.03c-6.85-6.68-10.27-15.12-10.27-25.32s3.49-18.7,10.48-25.51c6.97-6.83,15.5-10.23,25.6-10.23,11.27,0,20.71,4.3,28.32,12.88l-9.55,10.81c-4.85-6.04-10.88-9.05-18.09-9.05-5.76,0-10.69,1.88-14.78,5.65-4.1,3.77-6.14,8.85-6.14,15.23s1.93,11.52,5.79,15.4c3.88,3.86,8.55,5.79,14.06,5.79h0Z"/>
		<path class="st0" d="M255.72,444.14c-1.47,1.2-2.21,2.82-2.21,4.81s.89,3.6,2.7,4.77c1.8,1.18,5.97,2.57,12.49,4.16,6.52,1.62,11.57,4.03,15.18,7.24,3.6,3.22,5.41,7.9,5.41,14.06s-2.31,11.17-6.94,14.99c-4.61,3.83-10.68,5.76-18.23,5.76-10.88,0-20.67-4.05-29.39-12.11l9.15-11.21c7.41,6.5,14.25,9.74,20.54,9.74,2.83,0,5.03-.6,6.63-1.81,1.61-1.23,2.41-2.86,2.41-4.92s-.85-3.72-2.54-4.91c-1.72-1.22-5.09-2.44-10.14-3.68-8-1.91-13.85-4.38-17.54-7.42-3.71-3.05-5.57-7.84-5.57-14.36s2.34-11.56,7.05-15.09c4.67-3.54,10.52-5.32,17.54-5.32,4.58,0,9.16.78,13.76,2.36,4.59,1.58,8.57,3.8,11.99,6.68l-7.77,11.21c-5.97-4.51-12.13-6.78-18.48-6.78-2.56,0-4.57.6-6.05,1.82h.01Z"/>
		<path class="st0" d="M324.87,444.14c-1.47,1.2-2.21,2.82-2.21,4.81s.91,3.6,2.69,4.77c1.81,1.18,5.98,2.57,12.5,4.16,6.52,1.62,11.58,4.03,15.17,7.24,3.62,3.22,5.42,7.9,5.42,14.06s-2.32,11.17-6.93,14.99c-4.62,3.83-10.71,5.76-18.24,5.76-10.87,0-20.68-4.05-29.39-12.11l9.14-11.21c7.41,6.5,14.26,9.74,20.55,9.74,2.81,0,5.03-.6,6.64-1.81,1.6-1.23,2.41-2.86,2.41-4.92s-.85-3.72-2.56-4.91c-1.71-1.22-5.08-2.44-10.12-3.68-8.01-1.91-13.85-4.38-17.56-7.42-3.7-3.05-5.56-7.84-5.56-14.36s2.35-11.56,7.03-15.09c4.69-3.54,10.53-5.32,17.55-5.32,4.59,0,9.17.78,13.77,2.36,4.57,1.58,8.58,3.8,11.99,6.68l-7.78,11.21c-5.95-4.51-12.12-6.78-18.48-6.78-2.55,0-4.57.6-6.04,1.82h0Z"/>
		<path class="st0" d="M435.85,455.89l-18.58,37.55h-9.14l-18.49-37.55v43.25h-15.32v-68.7h20.74l17.68,37.75,17.81-37.75h20.63v68.7h-15.32v-43.25h0Z"/>
	</g>
	<g>
		<path class="st1" d="M224.8,208.36c0-22.79,18.5-41.28,41.29-41.28s41.26,18.49,41.26,41.28-18.47,41.27-41.26,41.27-41.29-18.48-41.29-41.27"/>
		<path class="st2" d="M266.92,65.48c-10.17,7.89-18.84,16.72-25.92,26.3-8.18,11.12-14.24,23.27-17.91,36.14-.68,6.54-6.17,11.45-12.64,11.45l-1.21-.06c-2.63-.23-5.36-.35-8.12-.35-11.26,0-23.52,1.97-35.68,5.92-11.54,3.76-22.95,9.28-33.13,16.58,4.3,12,9.98,22.88,16.86,32.49,7.99,11.11,17.55,20.47,28.48,27.9,6.21,2.41,9.55,9.25,7.55,15.71-4.71,15.1-8.18,31.93-8.27,48.91-.07,10.89,1.25,21.93,4.46,32.67,13.02-.47,25.77-2.69,37.75-6.5,13.93-4.41,26.65-10.93,37.24-19.2,2.45-2.61,5.85-4,9.29-4,2.54,0,5.1.75,7.34,2.33,11.68,8.29,24.81,15.8,39.07,20.95,11.32,4.07,23.42,6.66,36.13,6.84,3.51-12.4,5.19-25.13,5.19-37.53-.03-14.94-2.54-29.48-7.28-42.48-3.38-6.11-1.21-13.83,4.86-17.28,11.17-6.38,22.72-16.47,32.33-29.23,6.86-9.1,12.65-19.5,16.53-30.77-10.98-7.55-22.46-13.45-34.13-17.48-11.96-4.12-24.14-6.33-36.22-6.33-1.44,0-2.88.03-4.31.1l-1.38.08c-5.62,0-10.73-3.72-12.3-9.36-3.69-13.28-10.19-26.72-19.4-38.97-6.87-9.15-15.27-17.63-25.16-24.85M267.09,83.3c5.13,4.6,9.8,9.72,14.01,15.3,7.87,10.46,13.79,22.35,17.13,34.38,3.17,11.43,13.69,19.42,25.55,19.42.77,0,1.54-.03,2.33-.09,1.13-.05,2.24-.08,3.36-.08,10.35,0,21.03,1.88,31.75,5.57,7.24,2.51,14.46,5.83,21.54,9.93-2.83,5.9-6.32,11.6-10.43,17.06-8.07,10.71-18.08,19.79-28.16,25.54-12.17,6.92-16.79,22.28-10.69,34.73,4,11.3,6.14,24.07,6.16,36.98,0,7.73-.72,15.41-2.11,22.94-6.86-.94-13.82-2.68-20.81-5.19-11.72-4.22-23.75-10.69-35.79-19.24-4.5-3.17-9.78-4.85-15.27-4.85-6.87,0-13.49,2.69-18.4,7.42-9.05,6.93-20.21,12.6-32.28,16.42-7.43,2.36-15.09,4.02-22.9,4.98-.97-5.75-1.44-11.76-1.41-17.96.09-13.82,2.67-28.93,7.68-44.93,3.9-12.65-2.2-26.25-13.97-31.84-9.18-6.4-17.26-14.43-24.03-23.83-4.18-5.87-7.87-12.26-11-19.08,6.35-3.58,13.24-6.62,20.34-8.94,10.58-3.43,21.46-5.25,31.44-5.25,2.35,0,4.67.11,6.85.3.83.08,1.67.12,2.48.12,13.12,0,24.1-9.51,26.12-22.33,3.23-10.89,8.45-21.26,15.49-30.83,4.36-5.9,9.39-11.47,15.03-16.65"/>
		<path class="st3" d="M183.94,92.16c-3.5,12.41-5.18,25.12-5.18,37.53,0,3.88.18,7.73.52,11.53,4.61-.93,9.17-1.59,13.63-1.94-.26-3.18-.39-6.38-.39-9.6,0-7.71.7-15.4,2.11-22.95,6.86.95,13.82,2.68,20.79,5.19,3.81,1.37,7.66,2.98,11.53,4.82,1.72-4.22,3.72-8.36,5.96-12.39-4.17-1.98-8.44-3.78-12.82-5.36-11.32-4.08-23.42-6.67-36.14-6.86M350.75,92.6c-13.01.47-25.75,2.7-37.73,6.5-4.19,1.33-8.27,2.84-12.23,4.55,2.29,4.06,4.3,8.19,6.05,12.34,3.32-1.39,6.77-2.66,10.35-3.79,7.42-2.36,15.08-4.02,22.89-4.98.96,5.74,1.44,11.74,1.4,17.96-.03,4.51-.31,9.15-.87,13.91,4.52.49,9.05,1.28,13.55,2.35.65-5.34,1.03-10.75,1.07-16.17.05-10.9-1.25-21.95-4.48-32.68M288.47,109.79c-4.5,2.58-8.75,5.41-12.71,8.5-2.45,2.62-5.85,4.01-9.28,4.01-2.55,0-5.1-.75-7.33-2.33-4.49-3.19-9.21-6.27-14.11-9.14-2.28,4.05-4.26,8.21-5.91,12.48,4.02,2.39,8.06,5.02,12.1,7.89,4.49,3.17,9.76,4.84,15.26,4.84,6.86,0,13.48-2.69,18.39-7.42,3.02-2.32,6.24-4.47,9.64-6.46-1.72-4.21-3.74-8.35-6.05-12.37M338.37,152.69c-1.18,5.67-2.7,11.49-4.56,17.44-3.9,12.63,2.19,26.25,13.98,31.84,1.46,1.02,2.89,2.08,4.28,3.17,3.62-2.7,7.16-5.78,10.54-9.17-2.6-2.14-5.32-4.17-8.11-6.07-6.21-2.42-9.57-9.24-7.57-15.71,1.91-6.13,3.62-12.54,4.98-19.14-4.54-1.12-9.06-1.91-13.55-2.37M194.84,152.92c-4.45.32-9.02.98-13.63,1.94,1.19,6,2.81,11.8,4.83,17.31,3.36,6.11,1.2,13.83-4.87,17.29-3.81,2.17-7.65,4.77-11.46,7.77,3.25,3.38,6.71,6.52,10.35,9.37,2.62-1.94,5.28-3.68,7.92-5.19,12.15-6.93,16.79-22.28,10.69-34.73-1.57-4.39-2.83-9-3.82-13.75M372.68,205.35c-3.32,3.36-6.77,6.43-10.24,9.17,3.34,3.49,6.47,7.26,9.37,11.29,4.18,5.86,7.87,12.24,10.98,19.07-6.32,3.59-13.13,6.58-20.34,8.92-3.82,1.24-7.68,2.27-11.53,3.08.89,4.45,1.54,9,1.95,13.64,4.59-.93,9.21-2.14,13.82-3.64,11.56-3.76,22.93-9.28,33.13-16.58-4.3-12-9.98-22.89-16.84-32.49-3.2-4.43-6.63-8.59-10.31-12.46M159.46,206.4c-3.7,3.74-7.28,7.85-10.62,12.27-6.85,9.1-12.65,19.51-16.53,30.79,10.99,7.54,22.46,13.45,34.14,17.48,3.82,1.33,7.67,2.45,11.54,3.36.56-4.6,1.32-9.13,2.24-13.6-3.09-.76-6.18-1.68-9.29-2.75-7.23-2.5-14.44-5.82-21.54-9.94,2.82-5.89,6.31-11.6,10.42-17.05,3.01-3.99,6.27-7.75,9.72-11.19-3.53-2.9-6.89-6.04-10.08-9.37M321.69,258.63c-13.11,0-24.1,9.51-26.11,22.34-.74,2.52-1.61,5-2.56,7.47,4.07,2.42,8.14,4.59,12.19,6.53,1.48-3.66,2.77-7.35,3.87-11.14.65-6.54,6.14-11.46,12.61-11.46l1.22.07c2.63.23,5.34.36,8.14.36s5.43-.12,8.21-.34c-.39-4.63-1.05-9.19-1.95-13.64-2.12.15-4.2.23-6.25.23-2.37,0-4.68-.1-6.85-.3-.84-.08-1.67-.12-2.51-.12M193.77,259.06c-.96,4.63-1.71,9.17-2.23,13.59,3.7.4,7.39.61,11.08.61,1.45,0,2.9-.03,4.35-.09l1.38-.08c5.6,0,10.74,3.72,12.3,9.34,1.23,4.43,2.78,8.88,4.62,13.3,4.31-1.83,8.45-3.9,12.33-6.17-1.45-3.57-2.7-7.18-3.7-10.8-3.17-11.43-13.68-19.41-25.55-19.41-.77,0-1.56.03-2.33.1-1.13.05-2.26.06-3.4.06-2.93,0-5.88-.15-8.86-.45M287.1,300.91c-2.1,3.74-4.45,7.38-7.04,10.89-4.33,5.88-9.36,11.45-15.01,16.64-5.13-4.61-9.82-9.72-14.01-15.3-2.68-3.58-5.15-7.34-7.36-11.2-3.92,2.26-8.04,4.31-12.31,6.14,2.55,4.55,5.47,9.01,8.69,13.32,6.89,9.16,15.27,17.63,25.16,24.86,10.18-7.9,18.85-16.72,25.92-26.31,2.98-4.06,5.7-8.27,8.11-12.6-4.17-1.98-8.21-4.15-12.14-6.44"/>
		<path class="st0" d="M300.79,103.65c-4.27,1.84-8.39,3.89-12.33,6.14,2.31,4.01,4.33,8.15,6.06,12.36,3.88-2.27,7.99-4.33,12.32-6.15-1.75-4.16-3.76-8.3-6.05-12.35M232.9,104.38c-2.24,4.03-4.23,8.16-5.96,12.4,4.04,1.93,8.11,4.1,12.19,6.53,1.67-4.26,3.63-8.43,5.9-12.48-3.92-2.3-7.97-4.47-12.14-6.45M340.61,139.1c-.53,4.42-1.26,8.95-2.24,13.58,4.49.45,9,1.24,13.55,2.37.92-4.47,1.69-9,2.24-13.6-4.5-1.07-9.03-1.86-13.55-2.35M192.9,139.29c-4.46.35-9.02,1-13.63,1.94.41,4.63,1.06,9.18,1.94,13.63,4.6-.96,9.18-1.61,13.63-1.94-.91-4.44-1.56-9.01-1.94-13.63M362.62,195.98c-3.38,3.38-6.93,6.46-10.54,9.16,3.65,2.86,7.11,5.99,10.36,9.38,3.47-2.74,6.92-5.81,10.25-9.17-3.19-3.34-6.55-6.48-10.08-9.37M169.71,197.23c-3.47,2.73-6.92,5.8-10.24,9.17,3.17,3.34,6.54,6.47,10.06,9.37,3.38-3.39,6.92-6.47,10.52-9.15-3.63-2.87-7.09-6.01-10.35-9.38M180.22,256.71c-.92,4.45-1.68,9-2.24,13.59,4.52,1.07,9.03,1.86,13.56,2.36.52-4.43,1.26-8.96,2.24-13.6-4.49-.45-9.02-1.23-13.56-2.35M350.93,256.88c-4.6.96-9.17,1.62-13.63,1.94.91,4.45,1.56,9.01,1.95,13.64,4.45-.37,9.02-1.02,13.63-1.95-.41-4.63-1.06-9.19-1.95-13.64M293.02,288.44c-1.68,4.26-3.65,8.43-5.91,12.47,3.92,2.3,7.97,4.46,12.14,6.44,2.25-4.03,4.23-8.16,5.97-12.39-4.06-1.93-8.13-4.1-12.19-6.53M237.62,289.56c-3.88,2.28-8.02,4.34-12.33,6.17,1.76,4.16,3.78,8.3,6.08,12.37,4.27-1.85,8.39-3.9,12.31-6.15-2.29-4.02-4.33-8.17-6.06-12.39"/>
	</g>
</svg>