<?xml version="1.0" encoding="UTF-8"?>
<svg id="Layer_1" xmlns="http://www.w3.org/2000/svg" version="1.1" viewBox="0 0 1090.91 360">
	<!-- Generator: Adobe Illustrator 29.0.1, SVG Export Plug-In . SVG Version: 2.1.0 Build 192)	-->
	<defs>
		<style>
			.st0 {
				fill:rgb(255, 255, 255);
			}

			.st1 {
				fill: #d47f28;
			}

			.st2 {
				fill: #808285;
			}

			.st3 {
				fill: #b1b3b6;
			}
		</style>
	</defs>
	<g>
		<path class="st0" d="M395.96,79.14h9.12v53.97h-9.89l-30.57-39.39v39.39h-9.11v-53.97h9.11l31.34,40.3v-40.3Z"/>
		<path class="st0" d="M448.55,127.59c-4.12,4.09-9.26,6.14-15.44,6.14s-11.32-2.05-15.44-6.14c-4.12-4.1-6.19-9.09-6.19-15.02s2.07-10.93,6.19-15.02c4.12-4.1,9.25-6.14,15.44-6.14s11.32,2.05,15.44,6.14c4.12,4.09,6.17,9.1,6.17,15.02s-2.05,10.92-6.17,15.02ZM423.8,122.26c2.44,2.5,5.54,3.75,9.31,3.75s6.85-1.25,9.3-3.75c2.44-2.49,3.66-5.73,3.66-9.69s-1.22-7.2-3.66-9.69c-2.45-2.5-5.55-3.75-9.3-3.75s-6.86,1.25-9.31,3.75c-2.45,2.49-3.67,5.72-3.67,9.69s1.22,7.19,3.67,9.69Z"/>
		<path class="st0" d="M482.99,100.14c-4.29,0-7.5,1.39-9.66,4.17-2.16,2.77-3.25,6.51-3.25,11.19v17.61h-8.64v-41.08h8.64v8.27c1.39-2.58,3.29-4.69,5.68-6.33,2.38-1.66,4.92-2.5,7.61-2.55l.08,8.73h-.46Z"/>
		<path class="st0" d="M504.29,98.98v20.84c0,1.96.51,3.52,1.54,4.67,1.03,1.17,2.47,1.75,4.33,1.75s3.63-.91,5.32-2.7l3.55,6.1c-3.03,2.73-6.38,4.09-10.07,4.09s-6.83-1.28-9.42-3.83c-2.6-2.55-3.91-5.98-3.91-10.31v-20.61h-5.18v-6.95h5.18v-12.89h8.65v12.89h10.81v6.95h-10.81Z"/>
		<path class="st0" d="M533.02,110.87v22.24h-8.65v-57.22h8.65v23.63c1.23-2.52,3.09-4.51,5.6-5.94,2.49-1.44,5.19-2.16,8.07-2.16,4.63,0,8.37,1.42,11.23,4.24,2.86,2.84,4.29,6.93,4.29,12.28v25.17h-8.64v-22.54c0-7.57-3.14-11.35-9.43-11.35-2.98,0-5.57.99-7.79,2.97-2.21,1.98-3.32,4.87-3.32,8.68Z"/>
		<path class="st0" d="M621.29,124.85c3.13,0,5.82-.53,8.09-1.58,2.27-1.05,4.63-2.74,7.11-5.06l5.87,6.03c-5.71,6.33-12.66,9.5-20.82,9.5s-14.93-2.63-20.31-7.88c-5.38-5.25-8.08-11.89-8.08-19.92s2.76-14.72,8.23-20.08c5.48-5.35,12.42-8.03,20.77-8.03s15.35,3.08,20.97,9.27l-5.81,6.33c-2.57-2.47-5-4.19-7.29-5.17-2.29-.98-4.98-1.47-8.07-1.47-5.45,0-10.02,1.76-13.72,5.29-3.72,3.52-5.57,8.03-5.57,13.51s1.85,10.07,5.51,13.75c3.69,3.68,8.06,5.52,13.12,5.52Z"/>
		<path class="st0" d="M682.42,133.11h-7.88v-5.48c-3.39,4.06-7.95,6.1-13.66,6.1-4.28,0-7.8-1.22-10.62-3.63-2.8-2.42-4.19-5.65-4.19-9.69s1.47-7.07,4.47-9.08c2.98-2.01,7.02-3.01,12.11-3.01h11.2v-1.54c0-5.45-3.02-8.19-9.1-8.19-3.82,0-7.77,1.39-11.89,4.17l-3.86-5.41c4.99-3.96,10.65-5.94,16.98-5.94,4.85,0,8.8,1.23,11.86,3.67,3.08,2.44,4.59,6.29,4.59,11.54v26.49ZM673.77,117.82v-3.48h-9.73c-6.21,0-9.34,1.96-9.34,5.87,0,2.01.77,3.54,2.32,4.6,1.54,1.06,3.68,1.58,6.45,1.58s5.15-.78,7.22-2.32c2.05-1.54,3.08-3.63,3.08-6.25Z"/>
		<path class="st0" d="M712.93,100.14c-4.28,0-7.49,1.39-9.66,4.17-2.15,2.77-3.24,6.51-3.24,11.19v17.61h-8.65v-41.08h8.65v8.27c1.38-2.58,3.28-4.69,5.68-6.33,2.4-1.66,4.93-2.5,7.61-2.55l.07,8.73h-.45Z"/>
		<path class="st0" d="M752.53,127.59c-4.14,4.09-9.26,6.14-15.46,6.14s-11.31-2.05-15.43-6.14c-4.12-4.1-6.18-9.09-6.18-15.02s2.06-10.93,6.18-15.02c4.12-4.1,9.26-6.14,15.43-6.14s11.32,2.05,15.46,6.14c4.12,4.09,6.19,9.1,6.19,15.02s-2.06,10.92-6.19,15.02ZM727.78,122.26c2.45,2.5,5.55,3.75,9.3,3.75s6.87-1.25,9.32-3.75c2.45-2.49,3.66-5.73,3.66-9.69s-1.21-7.2-3.66-9.69c-2.45-2.5-5.55-3.75-9.32-3.75s-6.85,1.25-9.3,3.75c-2.44,2.49-3.66,5.72-3.66,9.69s1.23,7.19,3.66,9.69Z"/>
		<path class="st0" d="M774.07,133.11h-8.64v-57.29h8.64v57.29Z"/>
		<path class="st0" d="M784.03,83.85c-1.09-1.08-1.62-2.36-1.62-3.86s.52-2.78,1.62-3.86c1.09-1.08,2.36-1.62,3.85-1.62s2.79.54,3.87,1.62c1.09,1.08,1.62,2.37,1.62,3.86s-.52,2.78-1.62,3.86c-1.09,1.08-2.36,1.62-3.87,1.62s-2.75-.54-3.85-1.62ZM792.15,133.11h-8.65v-41.08h8.65v41.08Z"/>
		<path class="st0" d="M810.2,110.87v22.24h-8.64v-41.08h8.64v7.49c1.41-2.52,3.3-4.51,5.76-5.94,2.44-1.44,5.08-2.16,7.91-2.16,4.65,0,8.38,1.42,11.24,4.24,2.86,2.84,4.28,6.93,4.28,12.28v25.17h-8.65v-22.54c0-7.57-3.13-11.35-9.41-11.35-2.99,0-5.59.99-7.8,2.97-2.21,1.98-3.32,4.87-3.32,8.68Z"/>
		<path class="st0" d="M881.63,133.11h-7.87v-5.48c-3.41,4.06-7.96,6.1-13.68,6.1-4.26,0-7.8-1.22-10.62-3.63-2.79-2.42-4.2-5.65-4.2-9.69s1.49-7.07,4.47-9.08c3-2.01,7.03-3.01,12.13-3.01h11.19v-1.54c0-5.45-3.04-8.19-9.1-8.19-3.81,0-7.78,1.39-11.89,4.17l-3.87-5.41c5-3.96,10.66-5.94,16.98-5.94,4.83,0,8.79,1.23,11.85,3.67,3.06,2.44,4.6,6.29,4.6,11.54v26.49ZM872.97,117.82v-3.48h-9.72c-6.23,0-9.35,1.96-9.35,5.87,0,2.01.79,3.54,2.33,4.6,1.55,1.06,3.7,1.58,6.46,1.58s5.15-.78,7.22-2.32c2.05-1.54,3.07-3.63,3.07-6.25Z"/>
		<path class="st0" d="M371.84,167.34c-2.66,0-4.83.54-6.53,1.62-1.69,1.09-2.54,2.72-2.54,4.9s.85,3.87,2.54,5.03c1.71,1.14,5.32,2.4,10.85,3.74,5.54,1.33,9.7,3.22,12.52,5.63,2.8,2.42,4.19,5.99,4.19,10.69s-1.77,8.54-5.32,11.47c-3.55,2.93-8.21,4.4-13.97,4.4-8.45,0-15.93-2.91-22.47-8.73l5.71-6.88c5.45,4.74,11.12,7.11,16.97,7.11,2.95,0,5.28-.63,7-1.9,1.73-1.26,2.59-2.93,2.59-5.02s-.82-3.7-2.43-4.86c-1.63-1.16-4.42-2.22-8.39-3.17-3.96-.95-6.97-1.82-9.03-2.63-2.05-.79-3.89-1.83-5.48-3.12-3.2-2.42-4.79-6.13-4.79-11.12s1.82-8.85,5.44-11.55c3.63-2.7,8.11-4.05,13.47-4.05,3.45,0,6.89.57,10.28,1.69,3.39,1.14,6.32,2.74,8.79,4.79l-4.84,6.87c-1.61-1.43-3.76-2.62-6.49-3.55-2.73-.93-5.42-1.39-8.07-1.39Z"/>
		<path class="st0" d="M418.05,214.82c-5.73,0-10.64-1.94-14.75-5.83-4.12-3.88-6.17-8.97-6.17-15.25s2.15-11.38,6.45-15.33c4.3-3.93,9.53-5.91,15.72-5.91s11.4,2.13,15.66,6.41l-5.09,6.25c-3.55-3.09-7.14-4.63-10.73-4.63s-6.74,1.2-9.38,3.59c-2.65,2.39-3.98,5.48-3.98,9.26s1.31,6.99,3.94,9.61c2.62,2.63,5.86,3.93,9.7,3.93s7.45-1.74,10.85-5.25l5.09,5.57c-5,5.04-10.77,7.56-17.29,7.56Z"/>
		<path class="st0" d="M451.4,191.97v22.23h-8.64v-57.21h8.64v23.63c1.23-2.52,3.1-4.5,5.6-5.95,2.49-1.44,5.19-2.16,8.07-2.16,4.62,0,8.37,1.41,11.22,4.24,2.86,2.84,4.3,6.94,4.3,12.28v25.17h-8.66v-22.54c0-7.56-3.13-11.35-9.42-11.35-2.97,0-5.58.99-7.79,2.97-2.22,1.99-3.32,4.88-3.32,8.69Z"/>
		<path class="st0" d="M523.91,208.68c-4.12,4.09-9.27,6.14-15.44,6.14s-11.33-2.05-15.46-6.14c-4.11-4.09-6.17-9.09-6.17-15.01s2.07-10.92,6.17-15.02c4.12-4.1,9.27-6.14,15.46-6.14s11.32,2.05,15.44,6.14c4.11,4.09,6.17,9.1,6.17,15.02s-2.07,10.92-6.17,15.01ZM499.17,203.36c2.44,2.49,5.54,3.75,9.3,3.75s6.85-1.26,9.29-3.75c2.46-2.49,3.68-5.73,3.68-9.69s-1.21-7.2-3.68-9.69c-2.44-2.5-5.53-3.75-9.29-3.75s-6.86,1.25-9.3,3.75c-2.45,2.49-3.68,5.73-3.68,9.69s1.23,7.2,3.68,9.69Z"/>
		<path class="st0" d="M574.26,208.68c-4.13,4.09-9.27,6.14-15.46,6.14s-11.33-2.05-15.46-6.14c-4.1-4.09-6.17-9.09-6.17-15.01s2.07-10.92,6.17-15.02c4.12-4.1,9.27-6.14,15.46-6.14s11.33,2.05,15.46,6.14c4.1,4.09,6.16,9.1,6.16,15.02s-2.06,10.92-6.16,15.01ZM549.5,203.36c2.44,2.49,5.55,3.75,9.3,3.75s6.85-1.26,9.3-3.75c2.45-2.49,3.68-5.73,3.68-9.69s-1.23-7.2-3.68-9.69c-2.45-2.5-5.55-3.75-9.3-3.75s-6.86,1.25-9.3,3.75c-2.45,2.49-3.68,5.73-3.68,9.69s1.23,7.2,3.68,9.69Z"/>
		<path class="st0" d="M597.34,214.2h-8.66v-57.29h8.66v57.29Z"/>
		<path class="st0" d="M662.28,208.68c-4.13,4.09-9.27,6.14-15.46,6.14s-11.33-2.05-15.46-6.14c-4.1-4.09-6.17-9.09-6.17-15.01s2.07-10.92,6.17-15.02c4.12-4.1,9.27-6.14,15.46-6.14s11.33,2.05,15.46,6.14c4.12,4.09,6.18,9.1,6.18,15.02s-2.06,10.92-6.18,15.01ZM637.52,203.36c2.44,2.49,5.54,3.75,9.3,3.75s6.86-1.26,9.31-3.75c2.44-2.49,3.67-5.73,3.67-9.69s-1.23-7.2-3.67-9.69c-2.45-2.5-5.56-3.75-9.31-3.75s-6.86,1.25-9.3,3.75c-2.45,2.49-3.66,5.73-3.66,9.69s1.21,7.2,3.66,9.69Z"/>
		<path class="st0" d="M685.19,169.73v3.4h10.82v6.95h-10.82v34.12h-8.64v-34.12h-5.17v-6.95h5.17v-3.16c0-4.33,1.31-7.76,3.91-10.32,2.58-2.54,5.73-3.81,9.42-3.81s7.02,1.36,10.07,4.09l-3.55,6.1c-1.69-1.8-3.48-2.7-5.33-2.7s-3.3.58-4.32,1.73c-1.03,1.16-1.55,2.71-1.55,4.67Z"/>
		<path class="st0" d="M744.61,167.34c-2.67,0-4.83.54-6.51,1.62-1.71,1.09-2.56,2.72-2.56,4.9s.85,3.87,2.56,5.03c1.69,1.14,5.31,2.4,10.83,3.74,5.54,1.33,9.71,3.22,12.52,5.63,2.8,2.42,4.21,5.99,4.21,10.69s-1.78,8.54-5.33,11.47c-3.54,2.93-8.22,4.4-13.97,4.4-8.44,0-15.94-2.91-22.47-8.73l5.71-6.88c5.45,4.74,11.11,7.11,16.97,7.11,2.95,0,5.28-.63,7-1.9,1.73-1.26,2.58-2.93,2.58-5.02s-.81-3.7-2.43-4.86c-1.63-1.16-4.4-2.22-8.39-3.17-3.96-.95-6.96-1.82-9.03-2.63-2.06-.79-3.89-1.83-5.47-3.12-3.22-2.42-4.8-6.13-4.8-11.12s1.81-8.85,5.44-11.55c3.64-2.7,8.12-4.05,13.47-4.05,3.45,0,6.87.57,10.28,1.69,3.39,1.14,6.33,2.74,8.81,4.79l-4.87,6.87c-1.61-1.43-3.76-2.62-6.49-3.55-2.72-.93-5.41-1.39-8.07-1.39Z"/>
		<path class="st0" d="M790.83,214.82c-5.72,0-10.63-1.94-14.75-5.83-4.11-3.88-6.17-8.97-6.17-15.25s2.14-11.38,6.44-15.33c4.3-3.93,9.55-5.91,15.72-5.91s11.4,2.13,15.67,6.41l-5.09,6.25c-3.56-3.09-7.12-4.63-10.75-4.63s-6.72,1.2-9.37,3.59c-2.65,2.39-3.98,5.48-3.98,9.26s1.32,6.99,3.94,9.61c2.63,2.63,5.85,3.93,9.69,3.93s7.45-1.74,10.85-5.25l5.08,5.57c-4.99,5.04-10.76,7.56-17.28,7.56Z"/>
		<path class="st0" d="M816.08,164.94c-1.09-1.08-1.63-2.36-1.63-3.86s.54-2.77,1.63-3.85c1.09-1.09,2.36-1.63,3.85-1.63s2.78.54,3.87,1.63,1.62,2.36,1.62,3.85-.54,2.78-1.62,3.86c-1.09,1.08-2.36,1.63-3.87,1.63s-2.77-.55-3.85-1.63ZM824.18,214.2h-8.64v-41.07h8.64v41.07Z"/>
		<path class="st0" d="M873.37,197.44h-32.21c.22,2.99,1.57,5.4,4.1,7.22,2.52,1.82,5.41,2.75,8.64,2.75,5.15,0,9.07-1.63,11.75-4.86l4.93,5.4c-4.4,4.58-10.18,6.87-17.27,6.87-5.78,0-10.68-1.91-14.73-5.76-4.04-3.83-6.06-8.97-6.06-15.44s2.05-11.6,6.18-15.41c4.1-3.8,8.97-5.71,14.56-5.71s10.33,1.68,14.24,5.05c3.92,3.38,5.88,8.02,5.88,13.95v5.94ZM841.17,190.66h23.55c0-3.45-1.07-6.1-3.23-7.96-2.17-1.85-4.83-2.77-7.99-2.77s-6.01.96-8.53,2.89c-2.52,1.93-3.79,4.55-3.79,7.84Z"/>
		<path class="st0" d="M889.97,191.97v22.23h-8.66v-41.07h8.66v7.49c1.38-2.52,3.31-4.5,5.75-5.95,2.45-1.44,5.08-2.16,7.91-2.16,4.64,0,8.4,1.41,11.23,4.24,2.86,2.84,4.3,6.94,4.3,12.28v25.17h-8.65v-22.54c0-7.56-3.15-11.35-9.42-11.35-2.98,0-5.58.99-7.8,2.97-2.2,1.99-3.31,4.88-3.31,8.69Z"/>
		<path class="st0" d="M947.87,214.82c-5.71,0-10.63-1.94-14.74-5.83-4.12-3.88-6.19-8.97-6.19-15.25s2.14-11.38,6.46-15.33c4.3-3.93,9.54-5.91,15.71-5.91s11.4,2.13,15.67,6.41l-5.09,6.25c-3.56-3.09-7.13-4.63-10.73-4.63s-6.74,1.2-9.38,3.59c-2.67,2.39-3.99,5.48-3.99,9.26s1.32,6.99,3.94,9.61c2.63,2.63,5.86,3.93,9.7,3.93s7.44-1.74,10.85-5.25l5.09,5.57c-4.99,5.04-10.77,7.56-17.3,7.56Z"/>
		<path class="st0" d="M1010.8,197.44h-32.2c.2,2.99,1.57,5.4,4.1,7.22,2.51,1.82,5.4,2.75,8.65,2.75,5.14,0,9.06-1.63,11.72-4.86l4.95,5.4c-4.42,4.58-10.19,6.87-17.29,6.87-5.78,0-10.68-1.91-14.73-5.76-4.02-3.83-6.05-8.97-6.05-15.44s2.07-11.6,6.19-15.41c4.11-3.8,8.97-5.71,14.54-5.71s10.34,1.68,14.26,5.05c3.91,3.38,5.86,8.02,5.86,13.95v5.94ZM978.61,190.66h23.55c0-3.45-1.08-6.1-3.24-7.96-2.17-1.85-4.83-2.77-7.98-2.77s-6.02.96-8.55,2.89c-2.52,1.93-3.78,4.55-3.78,7.84Z"/>
		<path class="st0" d="M387.55,291.42h-7.87v-5.48c-3.39,4.07-7.95,6.1-13.67,6.1-4.27,0-7.8-1.21-10.61-3.64-2.81-2.4-4.21-5.64-4.21-9.67s1.49-7.08,4.47-9.08c2.99-2.01,7.03-3.01,12.13-3.01h11.19v-1.54c0-5.46-3.04-8.19-9.1-8.19-3.81,0-7.79,1.39-11.9,4.17l-3.86-5.41c5-3.96,10.66-5.95,16.99-5.95,4.84,0,8.78,1.23,11.85,3.67,3.07,2.44,4.6,6.3,4.6,11.54v26.5ZM378.9,276.12v-3.46h-9.73c-6.23,0-9.35,1.96-9.35,5.86,0,2.01.77,3.53,2.33,4.59,1.53,1.06,3.68,1.59,6.45,1.59s5.15-.77,7.2-2.33c2.07-1.53,3.09-3.6,3.09-6.25Z"/>
		<path class="st0" d="M403.6,269.18v22.24h-8.64v-41.08h8.64v7.49c1.39-2.52,3.32-4.5,5.75-5.94,2.44-1.44,5.09-2.17,7.92-2.17,4.63,0,8.37,1.42,11.23,4.24,2.85,2.84,4.29,6.93,4.29,12.29v25.17h-8.65v-22.55c0-7.56-3.13-11.35-9.43-11.35-2.97,0-5.58.99-7.79,2.97-2.21,1.99-3.32,4.89-3.32,8.69Z"/>
		<path class="st0" d="M444.92,286.17c-3.86-3.92-5.8-9.06-5.8-15.44s2-11.49,5.96-15.3c3.96-3.81,8.67-5.71,14.16-5.71s9.9,2.32,13.24,6.94v-22.54h8.65v57.3h-8.65v-6.17c-3.19,4.53-7.85,6.79-13.97,6.79-5.2,0-9.74-1.96-13.59-5.87ZM447.77,271.08c0,3.92,1.26,7.13,3.78,9.61,2.53,2.45,5.48,3.69,8.88,3.69s6.28-1.24,8.64-3.74c2.38-2.48,3.55-5.7,3.55-9.61s-1.18-7.18-3.55-9.81c-2.36-2.62-5.27-3.93-8.72-3.93s-6.41,1.31-8.88,3.93c-2.47,2.63-3.71,5.92-3.71,9.86Z"/>
		<path class="st0" d="M520.5,291.42h-9.1v-53.97h14.21l16.28,33.89,16.29-33.89h14.13v53.97h-9.12v-42.16l-18.84,37.44h-5.09l-18.77-37.44v42.16Z"/>
		<path class="st0" d="M614.71,291.42h-7.89v-5.48c-3.39,4.07-7.95,6.1-13.67,6.1-4.26,0-7.8-1.21-10.6-3.64-2.81-2.4-4.21-5.64-4.21-9.67s1.48-7.08,4.48-9.08c2.98-2.01,7.02-3.01,12.13-3.01h11.19v-1.54c0-5.46-3.04-8.19-9.12-8.19-3.8,0-7.78,1.39-11.9,4.17l-3.86-5.41c5-3.96,10.66-5.95,17-5.95,4.83,0,8.8,1.23,11.85,3.67,3.06,2.44,4.6,6.3,4.6,11.54v26.5ZM606.05,276.12v-3.46h-9.73c-6.23,0-9.33,1.96-9.33,5.86,0,2.01.76,3.53,2.31,4.59,1.54,1.06,3.69,1.59,6.45,1.59s5.15-.77,7.2-2.33c2.07-1.53,3.09-3.6,3.09-6.25Z"/>
		<path class="st0" d="M633.86,257.29v20.84c0,1.96.5,3.51,1.53,4.67,1.04,1.15,2.48,1.74,4.33,1.74s3.62-.91,5.32-2.71l3.56,6.1c-3.04,2.74-6.4,4.1-10.07,4.1s-6.82-1.27-9.42-3.82c-2.6-2.54-3.91-5.99-3.91-10.31v-20.61h-5.16v-6.95h5.16v-12.89h8.67v12.89h10.8v6.95h-10.8Z"/>
		<path class="st0" d="M662.59,269.18v22.24h-8.66v-57.21h8.66v23.62c1.23-2.52,3.08-4.5,5.58-5.94,2.5-1.44,5.18-2.17,8.07-2.17,4.63,0,8.38,1.42,11.24,4.24,2.86,2.84,4.29,6.93,4.29,12.29v25.17h-8.66v-22.55c0-7.56-3.14-11.35-9.41-11.35-2.99,0-5.58.99-7.8,2.97-2.21,1.99-3.3,4.89-3.3,8.69Z"/>
		<path class="st0" d="M738.94,274.66h-32.21c.22,2.99,1.59,5.39,4.11,7.22,2.52,1.82,5.39,2.74,8.64,2.74,5.15,0,9.06-1.61,11.75-4.86l4.94,5.39c-4.44,4.59-10.2,6.88-17.31,6.88-5.75,0-10.66-1.92-14.7-5.76s-6.06-8.98-6.06-15.45,2.06-11.59,6.18-15.4,8.97-5.71,14.54-5.71,10.34,1.69,14.25,5.06c3.91,3.38,5.87,8.03,5.87,13.94v5.94ZM706.73,267.87h23.56c0-3.45-1.08-6.1-3.26-7.96-2.15-1.87-4.8-2.78-7.96-2.78s-6.02.97-8.53,2.9c-2.54,1.94-3.8,4.54-3.8,7.84Z"/>
		<path class="st0" d="M755.54,269.18v22.24h-8.65v-41.08h8.65v7.49c1.24-2.52,3.1-4.5,5.61-5.94,2.48-1.44,5.18-2.17,8.06-2.17,6.47,0,10.89,2.68,13.21,8.03,4.05-5.35,9.13-8.03,15.2-8.03,4.64,0,8.39,1.42,11.24,4.24,2.87,2.84,4.3,6.93,4.3,12.29v25.17h-8.66v-22.55c0-7.56-3.14-11.35-9.42-11.35-2.92,0-5.49.95-7.67,2.82-2.19,1.88-3.34,4.62-3.43,8.22v22.86h-8.66v-22.55c0-3.91-.69-6.78-2.08-8.6-1.39-1.83-3.57-2.75-6.56-2.75s-5.59.99-7.8,2.97c-2.21,1.99-3.32,4.89-3.32,8.69Z"/>
		<path class="st0" d="M855.37,291.42h-7.87v-5.48c-3.39,4.07-7.95,6.1-13.65,6.1-4.27,0-7.82-1.21-10.63-3.64-2.79-2.4-4.21-5.64-4.21-9.67s1.5-7.08,4.47-9.08c2.98-2.01,7.04-3.01,12.13-3.01h11.21v-1.54c0-5.46-3.04-8.19-9.12-8.19-3.81,0-7.77,1.39-11.9,4.17l-3.85-5.41c4.99-3.96,10.65-5.95,16.98-5.95,4.85,0,8.8,1.23,11.86,3.67,3.06,2.44,4.59,6.3,4.59,11.54v26.5ZM846.73,276.12v-3.46h-9.72c-6.23,0-9.34,1.96-9.34,5.86,0,2.01.77,3.53,2.31,4.59,1.55,1.06,3.69,1.59,6.45,1.59s5.15-.77,7.21-2.33c2.06-1.53,3.09-3.6,3.09-6.25Z"/>
		<path class="st0" d="M874.53,257.29v20.84c0,1.96.51,3.51,1.54,4.67,1.03,1.15,2.47,1.74,4.33,1.74s3.63-.91,5.32-2.71l3.57,6.1c-3.05,2.74-6.4,4.1-10.08,4.1s-6.83-1.27-9.43-3.82c-2.6-2.54-3.89-5.99-3.89-10.31v-20.61h-5.19v-6.95h5.19v-12.89h8.64v12.89h10.81v6.95h-10.81Z"/>
		<path class="st0" d="M896.69,242.15c-1.07-1.07-1.62-2.36-1.62-3.85s.55-2.79,1.62-3.87c1.07-1.08,2.37-1.62,3.86-1.62s2.77.54,3.86,1.62c1.07,1.08,1.63,2.37,1.63,3.87s-.56,2.78-1.63,3.85c-1.09,1.09-2.36,1.63-3.86,1.63s-2.79-.54-3.86-1.63ZM904.8,291.42h-8.65v-41.08h8.65v41.08Z"/>
		<path class="st0" d="M933.98,292.04c-5.72,0-10.63-1.95-14.75-5.84-4.12-3.89-6.18-8.96-6.18-15.25s2.15-11.39,6.44-15.32c4.31-3.94,9.56-5.91,15.73-5.91s11.4,2.15,15.67,6.42l-5.1,6.25c-3.57-3.09-7.13-4.63-10.73-4.63s-6.73,1.2-9.4,3.58c-2.64,2.4-3.97,5.49-3.97,9.29s1.32,6.98,3.94,9.59c2.62,2.64,5.84,3.95,9.7,3.95s7.46-1.76,10.84-5.26l5.11,5.57c-5.01,5.04-10.77,7.57-17.3,7.57Z"/>
		<path class="st0" d="M989.19,279.14c0,3.91-1.41,7.04-4.25,9.39-2.82,2.33-6.45,3.51-10.87,3.51-3,0-6.08-.55-9.31-1.63-3.22-1.07-6.06-2.59-8.53-4.56l4.16-6.71c4.79,3.61,9.43,5.41,13.9,5.41,1.96,0,3.52-.46,4.62-1.36,1.14-.89,1.71-2.05,1.71-3.43,0-2.07-2.74-3.92-8.18-5.57-.42-.15-.74-.26-.93-.31-8.54-2.31-12.82-6.17-12.82-11.58,0-3.8,1.48-6.86,4.45-9.15,2.95-2.28,6.8-3.43,11.54-3.43s9.2,1.39,13.43,4.17l-3.25,6.41c-3.35-2.22-6.97-3.32-10.89-3.32-2.05,0-3.72.36-5.02,1.12-1.27.74-1.92,1.87-1.92,3.36,0,1.34.67,2.32,2,2.93.92.46,2.22.9,3.91,1.3,1.66.42,3.15.84,4.44,1.24,1.28.41,2.52.88,3.73,1.39,1.21.52,2.52,1.23,3.91,2.16,2.77,1.85,4.16,4.74,4.16,8.65Z"/>
	</g>
	<g>
		<path class="st1" d="M144.37,185.24c0-17.99,14.59-32.58,32.59-32.58s32.56,14.59,32.56,32.58-14.58,32.58-32.56,32.58-32.59-14.59-32.59-32.58"/>
		<path class="st2" d="M177.61,72.48c-8.02,6.22-14.87,13.19-20.45,20.75-6.46,8.78-11.24,18.37-14.14,28.52-.54,5.16-4.87,9.03-9.98,9.03l-.95-.04c-2.07-.18-4.23-.28-6.41-.28-8.89,0-18.56,1.56-28.16,4.67-9.11,2.97-18.11,7.33-26.15,13.08,3.39,9.47,7.88,18.05,13.3,25.64,6.31,8.77,13.85,16.15,22.48,22.02,4.9,1.91,7.53,7.3,5.96,12.4-3.71,11.92-6.45,25.2-6.53,38.59-.05,8.6.98,17.31,3.52,25.79,10.27-.36,20.33-2.13,29.79-5.12,10.99-3.48,21.03-8.64,29.39-15.15,1.94-2.07,4.61-3.16,7.33-3.16,2,0,4.02.6,5.79,1.84,9.21,6.55,19.57,12.47,30.83,16.53,8.94,3.22,18.49,5.25,28.52,5.4,2.77-9.79,4.1-19.82,4.1-29.61-.02-11.79-2-23.25-5.75-33.53-2.67-4.81-.95-10.9,3.83-13.63,8.81-5.05,17.92-13,25.51-23.07,5.42-7.18,9.99-15.39,13.05-24.28-8.67-5.97-17.72-10.62-26.94-13.8-9.44-3.26-19.05-5-28.59-5-1.14,0-2.27.03-3.41.08l-1.09.06c-4.43,0-8.46-2.93-9.7-7.39-2.91-10.48-8.04-21.08-15.31-30.75-5.43-7.22-12.05-13.92-19.85-19.61M177.74,86.54c4.05,3.64,7.74,7.67,11.06,12.08,6.21,8.25,10.89,17.64,13.52,27.13,2.51,9.02,10.8,15.32,20.16,15.32.61,0,1.22-.02,1.84-.07.89-.04,1.77-.05,2.66-.05,8.16,0,16.6,1.48,25.05,4.39,5.72,1.98,11.41,4.6,17,7.85-2.23,4.65-4.99,9.15-8.23,13.45-6.37,8.47-14.27,15.63-22.22,20.17-9.6,5.47-13.25,17.58-8.43,27.41,3.15,8.91,4.85,19,4.85,29.18,0,6.09-.56,12.16-1.67,18.11-5.41-.75-10.9-2.12-16.41-4.1-9.25-3.33-18.74-8.43-28.25-15.19-3.55-2.51-7.72-3.83-12.05-3.83-5.43,0-10.65,2.13-14.52,5.86-7.15,5.46-15.95,9.95-25.48,12.96-5.86,1.86-11.91,3.16-18.08,3.93-.75-4.54-1.13-9.27-1.11-14.17.08-10.91,2.11-22.83,6.06-35.46,3.08-9.98-1.73-20.72-11.03-25.13-7.24-5.06-13.62-11.39-18.96-18.81-3.29-4.64-6.21-9.67-8.68-15.05,5.01-2.83,10.45-5.23,16.06-7.05,8.35-2.71,16.93-4.15,24.81-4.15,1.85,0,3.68.09,5.41.24.65.06,1.32.09,1.96.09,10.35,0,19.02-7.5,20.61-17.62,2.55-8.59,6.67-16.78,12.22-24.33,3.44-4.65,7.41-9.05,11.86-13.15"/>
		<path class="st3" d="M112.12,93.54c-2.75,9.8-4.08,19.82-4.08,29.62,0,3.07.14,6.1.41,9.1,3.64-.74,7.24-1.25,10.75-1.53-.2-2.51-.31-5.04-.31-7.58,0-6.09.56-12.15,1.67-18.11,5.41.74,10.91,2.11,16.41,4.1,3,1.08,6.05,2.35,9.1,3.81,1.36-3.33,2.93-6.6,4.7-9.78-3.28-1.56-6.65-2.99-10.11-4.23-8.94-3.22-18.49-5.26-28.53-5.41M243.77,93.88c-10.27.37-20.33,2.13-29.77,5.13-3.31,1.04-6.53,2.24-9.65,3.59,1.8,3.2,3.39,6.46,4.77,9.74,2.62-1.1,5.34-2.1,8.17-2.99,5.85-1.86,11.9-3.17,18.06-3.93.76,4.53,1.13,9.27,1.1,14.18-.02,3.56-.24,7.22-.68,10.98,3.56.39,7.13,1.01,10.69,1.86.51-4.22.81-8.49.84-12.76.05-8.6-.98-17.32-3.53-25.79M194.62,107.44c-3.55,2.03-6.9,4.27-10.03,6.71-1.94,2.07-4.61,3.16-7.32,3.16-2.01,0-4.03-.59-5.79-1.83-3.54-2.52-7.27-4.95-11.13-7.21-1.8,3.2-3.36,6.48-4.67,9.85,3.17,1.89,6.36,3.97,9.55,6.22,3.54,2.51,7.71,3.83,12.04,3.83,5.41,0,10.64-2.12,14.51-5.86,2.39-1.82,4.93-3.53,7.61-5.09-1.36-3.32-2.95-6.59-4.77-9.76M234,141.3c-.93,4.47-2.13,9.08-3.6,13.76-3.08,9.98,1.73,20.72,11.04,25.12,1.16.81,2.28,1.65,3.38,2.51,2.86-2.12,5.65-4.56,8.32-7.23-2.05-1.69-4.19-3.29-6.4-4.79-4.9-1.9-7.56-7.29-5.98-12.4,1.52-4.84,2.86-9.9,3.93-15.1-3.59-.88-7.15-1.5-10.69-1.87M120.73,141.49c-3.51.26-7.11.77-10.76,1.53.94,4.73,2.22,9.31,3.81,13.66,2.65,4.83.95,10.92-3.84,13.64-3.01,1.72-6.03,3.78-9.05,6.14,2.57,2.67,5.3,5.14,8.17,7.4,2.06-1.54,4.16-2.91,6.25-4.11,9.59-5.46,13.24-17.58,8.43-27.41-1.24-3.46-2.24-7.1-3.02-10.85M261.07,182.86c-2.62,2.65-5.34,5.07-8.08,7.23,2.63,2.76,5.11,5.74,7.4,8.91,3.3,4.63,6.21,9.66,8.67,15.05-4.99,2.84-10.36,5.2-16.05,7.05-3.02.97-6.06,1.78-9.1,2.43.7,3.51,1.21,7.1,1.54,10.76,3.62-.74,7.27-1.69,10.9-2.88,9.12-2.97,18.1-7.33,26.14-13.08-3.39-9.47-7.88-18.06-13.29-25.64-2.53-3.5-5.24-6.79-8.14-9.83M92.81,183.68c-2.93,2.96-5.75,6.2-8.39,9.7-5.4,7.18-9.98,15.39-13.05,24.28,8.67,5.96,17.73,10.62,26.94,13.8,3.02,1.05,6.06,1.94,9.11,2.65.43-3.62,1.04-7.2,1.76-10.73-2.44-.6-4.88-1.33-7.33-2.17-5.7-1.96-11.4-4.59-17-7.84,2.22-4.64,4.98-9.15,8.22-13.46,2.38-3.15,4.95-6.12,7.68-8.83-2.79-2.29-5.44-4.76-7.95-7.4M220.84,224.91c-10.36,0-19.02,7.49-20.61,17.62-.59,1.98-1.27,3.95-2.02,5.9,3.21,1.9,6.42,3.62,9.62,5.15,1.17-2.88,2.19-5.81,3.05-8.8.52-5.15,4.85-9.03,9.96-9.03l.96.04c2.08.19,4.22.29,6.42.29s4.28-.08,6.48-.27c-.31-3.65-.82-7.25-1.54-10.76-1.67.12-3.32.17-4.93.17-1.87,0-3.69-.08-5.4-.23-.67-.06-1.32-.09-1.98-.09M119.89,225.24c-.76,3.66-1.35,7.24-1.76,10.73,2.92.31,5.84.47,8.74.47,1.14,0,2.29-.03,3.43-.08l1.09-.06c4.42,0,8.48,2.94,9.71,7.38.97,3.51,2.19,7.02,3.65,10.5,3.4-1.44,6.67-3.07,9.73-4.86-1.14-2.82-2.13-5.68-2.92-8.53-2.51-9.02-10.8-15.32-20.17-15.32-.61,0-1.23.03-1.84.09-.89.03-1.78.05-2.68.05-2.31,0-4.65-.13-6.99-.36M193.54,258.28c-1.66,2.95-3.52,5.82-5.55,8.6-3.41,4.63-7.39,9.03-11.85,13.13-4.05-3.64-7.75-7.68-11.05-12.07-2.12-2.83-4.07-5.79-5.82-8.85-3.09,1.78-6.35,3.4-9.72,4.86,2.01,3.58,4.31,7.1,6.86,10.5,5.44,7.23,12.06,13.92,19.85,19.62,8.04-6.24,14.88-13.19,20.45-20.76,2.35-3.21,4.49-6.53,6.4-9.94-3.29-1.57-6.47-3.28-9.58-5.09"/>
		<path class="st0" d="M204.34,102.6c-3.37,1.45-6.63,3.07-9.74,4.84,1.82,3.16,3.42,6.44,4.79,9.75,3.06-1.79,6.3-3.42,9.72-4.85-1.38-3.28-2.97-6.55-4.77-9.74M150.76,103.18c-1.76,3.18-3.34,6.44-4.7,9.78,3.19,1.52,6.4,3.23,9.62,5.15,1.32-3.36,2.87-6.65,4.66-9.85-3.09-1.82-6.3-3.52-9.58-5.09M235.77,130.58c-.42,3.49-1,7.06-1.77,10.72,3.54.36,7.11.98,10.69,1.87.73-3.53,1.34-7.11,1.76-10.73-3.55-.84-7.13-1.47-10.69-1.85M119.2,130.73c-3.52.28-7.11.79-10.75,1.53.32,3.66.83,7.25,1.53,10.76,3.63-.76,7.25-1.28,10.76-1.54-.72-3.5-1.23-7.1-1.53-10.75M253.14,175.46c-2.67,2.67-5.47,5.1-8.32,7.22,2.88,2.26,5.61,4.73,8.18,7.41,2.74-2.16,5.46-4.58,8.09-7.23-2.51-2.65-5.17-5.11-7.95-7.4M100.9,176.45c-2.74,2.16-5.46,4.58-8.08,7.23,2.51,2.65,5.16,5.11,7.94,7.4,2.66-2.67,5.45-5.11,8.3-7.23-2.87-2.26-5.6-4.74-8.17-7.4M109.19,223.39c-.73,3.51-1.33,7.1-1.76,10.73,3.56.84,7.13,1.47,10.7,1.87.41-3.5,1-7.08,1.76-10.73-3.54-.36-7.11-.98-10.7-1.86M243.91,223.52c-3.63.77-7.24,1.28-10.76,1.54.72,3.51,1.23,7.1,1.54,10.76,3.51-.29,7.11-.8,10.76-1.53-.33-3.66-.84-7.25-1.54-10.77M198.21,248.43c-1.33,3.36-2.88,6.65-4.67,9.84,3.09,1.81,6.29,3.52,9.58,5.09,1.78-3.18,3.34-6.44,4.71-9.78-3.2-1.53-6.41-3.25-9.62-5.15M154.49,249.32c-3.06,1.79-6.33,3.42-9.73,4.86,1.39,3.29,2.99,6.55,4.79,9.76,3.37-1.45,6.63-3.07,9.72-4.85-1.8-3.18-3.41-6.45-4.78-9.77"/>
	</g>
</svg>