<?xml version="1.0" encoding="UTF-8"?>
<svg id="Layer_1" xmlns="http://www.w3.org/2000/svg" version="1.1" viewBox="0 0 675 576">
	<!-- Generator: Adobe Illustrator 29.0.1, SVG Export Plug-In . SVG Version: 2.1.0 Build 192)	-->
	<defs>
		<style>
			.st0 {
				fill: #58595b;
			}

			.st1 {
				fill: #808184;
			}

			.st2 {
				fill: #b1b3b5;
			}

			.st3 {
				fill: #db821f;
			}
		</style>
	</defs>
	<g>
		<path class="st0" d="M100.68,338.09h7.68v45.47h-8.33l-25.76-33.17v33.17h-7.68v-45.47h7.68l26.41,33.96v-33.96Z"/>
		<path class="st0" d="M144.99,378.92c-3.47,3.45-7.81,5.17-13.01,5.17s-9.54-1.73-13.01-5.17c-3.47-3.45-5.2-7.67-5.2-12.66s1.74-9.2,5.2-12.66c3.47-3.44,7.8-5.17,13.01-5.17s9.54,1.73,13.01,5.17c3.47,3.45,5.2,7.67,5.2,12.66s-1.73,9.2-5.2,12.66ZM124.13,374.42c2.06,2.11,4.67,3.16,7.84,3.16s5.78-1.05,7.84-3.16c2.06-2.1,3.09-4.82,3.09-8.16s-1.03-6.06-3.09-8.17c-2.06-2.1-4.67-3.15-7.84-3.15s-5.78,1.05-7.84,3.15c-2.06,2.11-3.09,4.83-3.09,8.17s1.03,6.06,3.09,8.16Z"/>
		<path class="st0" d="M173.99,355.78c-3.6,0-6.31,1.17-8.13,3.52-1.82,2.34-2.73,5.49-2.73,9.44v14.82h-7.29v-34.6h7.29v6.96c1.17-2.18,2.76-3.95,4.78-5.34,2.01-1.39,4.15-2.11,6.41-2.15l.07,7.35h-.39Z"/>
		<path class="st0" d="M191.95,354.81v17.56c0,1.65.43,2.96,1.3,3.94.87.98,2.08,1.47,3.64,1.47s3.06-.76,4.49-2.28l2.99,5.14c-2.56,2.3-5.39,3.45-8.49,3.45s-5.75-1.08-7.94-3.23c-2.19-2.14-3.28-5.04-3.28-8.68v-17.37h-4.36v-5.85h4.36v-10.87h7.28v10.87h9.11v5.85h-9.11Z"/>
		<path class="st0" d="M216.15,364.83v18.73h-7.29v-48.2h7.29v19.9c1.04-2.12,2.61-3.8,4.72-5.01,2.1-1.21,4.37-1.82,6.8-1.82,3.9,0,7.06,1.19,9.47,3.58,2.41,2.38,3.61,5.83,3.61,10.33v21.21h-7.29v-18.99c0-6.37-2.65-9.56-7.93-9.56-2.52,0-4.71.83-6.57,2.5-1.86,1.67-2.79,4.11-2.79,7.32Z"/>
		<path class="st0" d="M290.5,376.6c2.64,0,4.92-.44,6.83-1.33,1.91-.89,3.9-2.31,5.98-4.26l4.94,5.06c-4.81,5.34-10.66,8.01-17.53,8.01s-12.58-2.21-17.11-6.64c-4.53-4.43-6.8-10.01-6.8-16.78s2.31-12.4,6.93-16.91c4.62-4.51,10.45-6.78,17.5-6.78s12.94,2.61,17.66,7.82l-4.88,5.33c-2.17-2.09-4.22-3.54-6.15-4.36-1.93-.82-4.2-1.24-6.8-1.24-4.6,0-8.46,1.49-11.58,4.46-3.12,2.97-4.69,6.77-4.69,11.38s1.55,8.47,4.65,11.58c3.1,3.1,6.77,4.65,11.03,4.65Z"/>
		<path class="st0" d="M342.02,383.56h-6.63v-4.61c-2.86,3.43-6.7,5.15-11.52,5.15-3.6,0-6.58-1.02-8.94-3.07-2.37-2.03-3.55-4.76-3.55-8.17s1.26-5.94,3.77-7.64c2.51-1.68,5.92-2.54,10.21-2.54h9.44v-1.3c0-4.59-2.56-6.89-7.68-6.89-3.21,0-6.55,1.17-10.02,3.52l-3.25-4.56c4.2-3.34,8.98-5.01,14.31-5.01,4.08,0,7.41,1.03,9.98,3.09,2.59,2.07,3.87,5.3,3.87,9.73v22.3ZM334.73,370.69v-2.93h-8.19c-5.25,0-7.87,1.64-7.87,4.94,0,1.69.65,2.98,1.95,3.88,1.3.89,3.11,1.33,5.43,1.33s4.35-.66,6.08-1.96c1.74-1.3,2.6-3.05,2.6-5.26Z"/>
		<path class="st0" d="M367.71,355.78c-3.6,0-6.31,1.17-8.12,3.52-1.83,2.34-2.73,5.49-2.73,9.44v14.82h-7.29v-34.6h7.29v6.96c1.16-2.18,2.76-3.95,4.78-5.34,2.02-1.39,4.15-2.11,6.41-2.15l.07,7.35h-.39Z"/>
		<path class="st0" d="M401.09,378.92c-3.47,3.45-7.81,5.17-13.01,5.17s-9.53-1.73-13.01-5.17c-3.47-3.45-5.2-7.67-5.2-12.66s1.74-9.2,5.2-12.66c3.48-3.44,7.8-5.17,13.01-5.17s9.54,1.73,13.01,5.17c3.47,3.45,5.21,7.67,5.21,12.66s-1.74,9.2-5.21,12.66ZM380.24,374.42c2.06,2.11,4.67,3.16,7.83,3.16s5.78-1.05,7.84-3.16c2.06-2.1,3.08-4.82,3.08-8.16s-1.02-6.06-3.08-8.17c-2.06-2.1-4.67-3.15-7.84-3.15s-5.77,1.05-7.83,3.15c-2.06,2.11-3.09,4.83-3.09,8.17s1.03,6.06,3.09,8.16Z"/>
		<path class="st0" d="M419.23,383.56h-7.28v-48.26h7.28v48.26Z"/>
		<path class="st0" d="M427.62,342.07c-.91-.92-1.37-2-1.37-3.25s.46-2.35,1.37-3.26c.92-.91,2-1.37,3.25-1.37s2.34.46,3.25,1.37c.92.91,1.37,2,1.37,3.26s-.45,2.34-1.37,3.25c-.91.9-1.99,1.36-3.25,1.36s-2.34-.46-3.25-1.36ZM434.46,383.56h-7.29v-34.6h7.29v34.6Z"/>
		<path class="st0" d="M449.67,364.83v18.73h-7.28v-34.6h7.28v6.31c1.18-2.12,2.79-3.8,4.85-5.01,2.06-1.21,4.28-1.82,6.67-1.82,3.9,0,7.06,1.19,9.47,3.58,2.41,2.38,3.62,5.83,3.62,10.33v21.21h-7.29v-18.99c0-6.37-2.65-9.56-7.93-9.56-2.52,0-4.71.83-6.57,2.5-1.87,1.67-2.8,4.11-2.8,7.32Z"/>
		<path class="st0" d="M509.85,383.56h-6.64v-4.61c-2.86,3.43-6.69,5.15-11.51,5.15-3.6,0-6.58-1.02-8.94-3.07-2.36-2.03-3.54-4.76-3.54-8.17s1.25-5.94,3.77-7.64c2.52-1.68,5.92-2.54,10.22-2.54h9.43v-1.3c0-4.59-2.56-6.89-7.68-6.89-3.21,0-6.55,1.17-10.02,3.52l-3.25-4.56c4.21-3.34,8.98-5.01,14.31-5.01,4.08,0,7.41,1.03,9.99,3.09,2.58,2.07,3.88,5.3,3.88,9.73v22.3ZM502.56,370.69v-2.93h-8.2c-5.24,0-7.87,1.64-7.87,4.94,0,1.69.65,2.98,1.95,3.88,1.3.89,3.12,1.33,5.44,1.33s4.34-.66,6.08-1.96c1.73-1.3,2.6-3.05,2.6-5.26Z"/>
		<path class="st0" d="M80.35,412.4c-2.24,0-4.07.46-5.5,1.37-1.43.91-2.15,2.29-2.15,4.13s.72,3.26,2.15,4.23c1.43.97,4.48,2.03,9.14,3.15,4.66,1.12,8.17,2.71,10.53,4.75,2.37,2.04,3.55,5.04,3.55,9.01s-1.5,7.19-4.49,9.65c-2.99,2.48-6.92,3.71-11.78,3.71-7.11,0-13.42-2.45-18.93-7.36l4.81-5.78c4.6,4,9.37,5.98,14.31,5.98,2.47,0,4.43-.53,5.89-1.59,1.45-1.06,2.18-2.48,2.18-4.23s-.68-3.12-2.05-4.1c-1.37-.97-3.72-1.86-7.06-2.67-3.34-.8-5.88-1.54-7.61-2.21-1.73-.66-3.27-1.54-4.62-2.63-2.69-2.04-4.03-5.16-4.03-9.37s1.53-7.44,4.59-9.72c3.06-2.28,6.84-3.42,11.35-3.42,2.9,0,5.79.48,8.65,1.44,2.86.95,5.33,2.29,7.41,4.03l-4.1,5.79c-1.35-1.21-3.17-2.22-5.46-2.99-2.3-.79-4.57-1.18-6.8-1.18Z"/>
		<path class="st0" d="M119.29,452.4c-4.81,0-8.96-1.63-12.43-4.91-3.47-3.28-5.2-7.56-5.2-12.86s1.81-9.59,5.43-12.9c3.62-3.32,8.03-4.98,13.24-4.98s9.61,1.8,13.21,5.4l-4.29,5.26c-2.99-2.6-6.01-3.9-9.04-3.9s-5.67,1.02-7.9,3.04c-2.24,2.01-3.35,4.61-3.35,7.8s1.11,5.88,3.32,8.09c2.21,2.22,4.93,3.33,8.17,3.33s6.28-1.47,9.14-4.43l4.29,4.68c-4.21,4.25-9.06,6.38-14.57,6.38Z"/>
		<path class="st0" d="M147.39,433.15v18.73h-7.29v-48.21h7.29v19.9c1.04-2.12,2.61-3.79,4.71-5,2.11-1.22,4.37-1.82,6.8-1.82,3.9,0,7.06,1.19,9.46,3.58,2.41,2.38,3.61,5.84,3.61,10.34v21.21h-7.29v-18.99c0-6.38-2.64-9.57-7.93-9.57-2.51,0-4.71.84-6.57,2.5-1.86,1.67-2.79,4.11-2.79,7.32Z"/>
		<path class="st0" d="M208.47,447.23c-3.47,3.45-7.8,5.17-13.01,5.17s-9.54-1.72-13.01-5.17c-3.47-3.45-5.21-7.66-5.21-12.66s1.74-9.2,5.21-12.65c3.47-3.45,7.8-5.17,13.01-5.17s9.54,1.72,13.01,5.17c3.47,3.45,5.21,7.67,5.21,12.65s-1.74,9.21-5.21,12.66ZM187.62,442.74c2.06,2.11,4.67,3.16,7.83,3.16s5.78-1.05,7.84-3.16c2.06-2.11,3.09-4.81,3.09-8.17s-1.03-6.05-3.09-8.16c-2.06-2.11-4.67-3.16-7.84-3.16s-5.78,1.05-7.83,3.16c-2.06,2.11-3.09,4.82-3.09,8.16s1.03,6.06,3.09,8.17Z"/>
		<path class="st0" d="M250.88,447.23c-3.47,3.45-7.8,5.17-13.01,5.17s-9.54-1.72-13.01-5.17c-3.47-3.45-5.2-7.66-5.2-12.66s1.73-9.2,5.2-12.65c3.47-3.45,7.8-5.17,13.01-5.17s9.54,1.72,13.01,5.17c3.47,3.45,5.21,7.67,5.21,12.65s-1.74,9.21-5.21,12.66ZM230.04,442.74c2.06,2.11,4.67,3.16,7.84,3.16s5.78-1.05,7.84-3.16c2.06-2.11,3.09-4.81,3.09-8.17s-1.03-6.05-3.09-8.16c-2.06-2.11-4.67-3.16-7.84-3.16s-5.78,1.05-7.84,3.16c-2.06,2.11-3.09,4.82-3.09,8.16s1.03,6.06,3.09,8.17Z"/>
		<path class="st0" d="M270.33,451.88h-7.29v-48.27h7.29v48.27Z"/>
		<path class="st0" d="M325.04,447.23c-3.47,3.45-7.8,5.17-13.01,5.17s-9.54-1.72-13.01-5.17c-3.47-3.45-5.2-7.66-5.2-12.66s1.73-9.2,5.2-12.65c3.47-3.45,7.81-5.17,13.01-5.17s9.54,1.72,13.01,5.17c3.47,3.45,5.2,7.67,5.2,12.65s-1.73,9.21-5.2,12.66ZM304.19,442.74c2.06,2.11,4.67,3.16,7.84,3.16s5.78-1.05,7.84-3.16c2.06-2.11,3.09-4.81,3.09-8.17s-1.04-6.05-3.09-8.16c-2.06-2.11-4.67-3.16-7.84-3.16s-5.78,1.05-7.84,3.16c-2.06,2.11-3.09,4.82-3.09,8.16s1.03,6.06,3.09,8.17Z"/>
		<path class="st0" d="M344.36,414.41v2.87h9.1v5.86h-9.1v28.75h-7.28v-28.75h-4.36v-5.86h4.36v-2.67c0-3.63,1.09-6.54,3.28-8.69,2.19-2.15,4.83-3.22,7.94-3.22s5.92,1.15,8.49,3.45l-3,5.14c-1.42-1.52-2.93-2.28-4.48-2.28s-2.78.49-3.65,1.46c-.86.99-1.3,2.29-1.3,3.93Z"/>
		<path class="st0" d="M394.41,412.4c-2.23,0-4.06.46-5.5,1.37-1.43.91-2.15,2.29-2.15,4.13s.72,3.26,2.15,4.23c1.43.97,4.48,2.03,9.14,3.15,4.66,1.12,8.17,2.71,10.54,4.75,2.36,2.04,3.55,5.04,3.55,9.01s-1.51,7.19-4.49,9.65c-2.98,2.48-6.92,3.71-11.77,3.71-7.11,0-13.43-2.45-18.93-7.36l4.81-5.78c4.6,4,9.36,5.98,14.31,5.98,2.47,0,4.44-.53,5.89-1.59,1.45-1.06,2.17-2.48,2.17-4.23s-.68-3.12-2.04-4.1c-1.37-.97-3.73-1.86-7.06-2.67-3.33-.8-5.88-1.54-7.61-2.21-1.73-.66-3.28-1.54-4.62-2.63-2.69-2.04-4.04-5.16-4.04-9.37s1.53-7.44,4.59-9.72c3.07-2.28,6.84-3.42,11.35-3.42,2.91,0,5.8.48,8.66,1.44,2.86.95,5.33,2.29,7.42,4.03l-4.1,5.79c-1.34-1.21-3.17-2.22-5.47-2.99-2.3-.79-4.56-1.18-6.8-1.18Z"/>
		<path class="st0" d="M433.35,452.4c-4.81,0-8.95-1.63-12.43-4.91-3.47-3.28-5.2-7.56-5.2-12.86s1.81-9.59,5.43-12.9c3.62-3.32,8.04-4.98,13.24-4.98s9.6,1.8,13.2,5.4l-4.29,5.26c-2.99-2.6-6-3.9-9.04-3.9s-5.67,1.02-7.91,3.04c-2.23,2.01-3.35,4.61-3.35,7.8s1.11,5.88,3.32,8.09c2.21,2.22,4.93,3.33,8.16,3.33s6.28-1.47,9.14-4.43l4.3,4.68c-4.21,4.25-9.07,6.38-14.57,6.38Z"/>
		<path class="st0" d="M454.62,410.39c-.9-.92-1.37-2-1.37-3.25s.46-2.35,1.37-3.26c.91-.91,2-1.37,3.26-1.37s2.34.46,3.25,1.37c.92.91,1.37,1.99,1.37,3.26s-.46,2.33-1.37,3.25c-.91.91-1.99,1.36-3.25,1.36s-2.35-.45-3.26-1.36ZM461.45,451.88h-7.29v-34.61h7.29v34.61Z"/>
		<path class="st0" d="M502.89,437.77h-27.12c.17,2.51,1.32,4.54,3.45,6.08,2.12,1.54,4.55,2.31,7.28,2.31,4.34,0,7.64-1.37,9.89-4.1l4.16,4.56c-3.73,3.85-8.58,5.79-14.56,5.79-4.86,0-8.99-1.61-12.4-4.85-3.4-3.23-5.11-7.56-5.11-13.01s1.73-9.77,5.21-12.98c3.47-3.21,7.56-4.81,12.26-4.81s8.71,1.42,12,4.26c3.29,2.84,4.95,6.76,4.95,11.74v5.01ZM475.76,432.04h19.84c0-2.9-.91-5.14-2.73-6.69-1.82-1.57-4.07-2.35-6.73-2.35s-5.07.82-7.19,2.44c-2.12,1.62-3.18,3.83-3.18,6.6Z"/>
		<path class="st0" d="M516.87,433.15v18.73h-7.29v-34.61h7.29v6.31c1.17-2.12,2.79-3.79,4.85-5,2.05-1.22,4.29-1.82,6.67-1.82,3.9,0,7.06,1.19,9.47,3.58,2.4,2.38,3.61,5.84,3.61,10.34v21.21h-7.28v-18.99c0-6.38-2.65-9.57-7.94-9.57-2.51,0-4.7.84-6.57,2.5-1.86,1.67-2.79,4.11-2.79,7.32Z"/>
		<path class="st0" d="M565.66,452.4c-4.81,0-8.96-1.63-12.42-4.91-3.48-3.28-5.21-7.56-5.21-12.86s1.82-9.59,5.44-12.9c3.62-3.32,8.03-4.98,13.24-4.98s9.61,1.8,13.21,5.4l-4.29,5.26c-2.99-2.6-6.02-3.9-9.04-3.9s-5.67,1.02-7.9,3.04c-2.24,2.01-3.35,4.61-3.35,7.8s1.11,5.88,3.32,8.09c2.21,2.22,4.93,3.33,8.17,3.33s6.28-1.47,9.14-4.43l4.29,4.68c-4.21,4.25-9.06,6.38-14.57,6.38Z"/>
		<path class="st0" d="M618.68,437.77h-27.12c.17,2.51,1.32,4.54,3.45,6.08,2.12,1.54,4.55,2.31,7.28,2.31,4.34,0,7.63-1.37,9.89-4.1l4.16,4.56c-3.73,3.85-8.58,5.79-14.57,5.79-4.85,0-8.99-1.61-12.39-4.85-3.41-3.23-5.11-7.56-5.11-13.01s1.74-9.77,5.21-12.98c3.47-3.21,7.56-4.81,12.26-4.81s8.71,1.42,12,4.26c3.29,2.84,4.94,6.76,4.94,11.74v5.01ZM591.56,432.04h19.83c0-2.9-.91-5.14-2.72-6.69-1.83-1.57-4.07-2.35-6.73-2.35s-5.07.82-7.19,2.44c-2.12,1.62-3.18,3.83-3.18,6.6Z"/>
		<path class="st0" d="M93.59,516.94h-6.64v-4.61c-2.86,3.42-6.7,5.13-11.51,5.13-3.6,0-6.58-1.02-8.94-3.06-2.37-2.03-3.55-4.75-3.55-8.16s1.26-5.94,3.77-7.64c2.51-1.69,5.92-2.54,10.21-2.54h9.43v-1.3c0-4.58-2.56-6.89-7.68-6.89-3.21,0-6.55,1.17-10.02,3.51l-3.25-4.56c4.21-3.33,8.98-5.01,14.31-5.01,4.07,0,7.4,1.04,9.98,3.1,2.58,2.06,3.87,5.31,3.87,9.73v22.31ZM86.3,504.05v-2.93h-8.2c-5.25,0-7.87,1.65-7.87,4.95,0,1.7.65,2.99,1.95,3.87,1.3.89,3.11,1.34,5.43,1.34s4.35-.66,6.08-1.96c1.73-1.3,2.6-3.05,2.6-5.27Z"/>
		<path class="st0" d="M107.12,498.21v18.73h-7.28v-34.61h7.28v6.31c1.17-2.12,2.79-3.79,4.85-5,2.06-1.22,4.28-1.83,6.67-1.83,3.9,0,7.06,1.21,9.47,3.58,2.41,2.4,3.61,5.85,3.61,10.35v21.21h-7.29v-19c0-6.37-2.64-9.56-7.93-9.56-2.52,0-4.71.83-6.57,2.5-1.87,1.67-2.8,4.1-2.8,7.32Z"/>
		<path class="st0" d="M141.92,512.51c-3.26-3.29-4.88-7.63-4.88-13.01s1.67-9.67,5.01-12.88c3.33-3.21,7.32-4.83,11.93-4.83s8.34,1.96,11.15,5.87v-19h7.29v48.27h-7.29v-5.2c-2.69,3.82-6.61,5.71-11.77,5.71-4.38,0-8.2-1.64-11.45-4.94ZM144.33,499.79c0,3.32,1.06,6.02,3.19,8.1,2.13,2.09,4.62,3.13,7.48,3.13s5.29-1.07,7.28-3.16c2-2.11,2.99-4.8,2.99-8.1s-1-6.05-2.99-8.26c-2-2.21-4.45-3.32-7.35-3.32s-5.4,1.11-7.48,3.32c-2.09,2.21-3.13,4.98-3.13,8.29Z"/>
		<path class="st0" d="M205.61,516.94h-7.68v-45.48h11.97l13.73,28.56,13.72-28.56h11.91v45.48h-7.68v-35.53l-15.87,31.56h-4.29l-15.81-31.56v35.53Z"/>
		<path class="st0" d="M284.97,516.94h-6.64v-4.61c-2.86,3.42-6.7,5.13-11.51,5.13-3.6,0-6.58-1.02-8.94-3.06-2.37-2.03-3.55-4.75-3.55-8.16s1.26-5.94,3.77-7.64c2.51-1.69,5.92-2.54,10.21-2.54h9.43v-1.3c0-4.58-2.56-6.89-7.68-6.89-3.21,0-6.55,1.17-10.02,3.51l-3.25-4.56c4.21-3.33,8.98-5.01,14.31-5.01,4.07,0,7.41,1.04,9.99,3.1,2.58,2.06,3.87,5.31,3.87,9.73v22.31ZM277.68,504.05v-2.93h-8.2c-5.25,0-7.87,1.65-7.87,4.95,0,1.7.65,2.99,1.95,3.87,1.3.89,3.11,1.34,5.43,1.34s4.35-.66,6.08-1.96c1.73-1.3,2.6-3.05,2.6-5.27Z"/>
		<path class="st0" d="M301.11,488.18v17.56c0,1.65.43,2.96,1.3,3.94.87.97,2.08,1.45,3.64,1.45s3.06-.75,4.49-2.27l2.99,5.14c-2.56,2.3-5.39,3.45-8.49,3.45s-5.75-1.06-7.94-3.22c-2.19-2.15-3.28-5.04-3.28-8.68v-17.38h-4.36v-5.85h4.36v-10.87h7.29v10.87h9.11v5.85h-9.11Z"/>
		<path class="st0" d="M325.3,498.21v18.73h-7.29v-48.2h7.29v19.9c1.04-2.12,2.61-3.79,4.71-5,2.11-1.22,4.36-1.83,6.79-1.83,3.91,0,7.06,1.21,9.47,3.58,2.41,2.4,3.61,5.85,3.61,10.35v21.21h-7.29v-19c0-6.37-2.64-9.56-7.94-9.56-2.52,0-4.7.83-6.57,2.5-1.86,1.67-2.79,4.1-2.79,7.32Z"/>
		<path class="st0" d="M389.64,502.82h-27.12c.17,2.52,1.32,4.55,3.45,6.08,2.13,1.54,4.56,2.31,7.28,2.31,4.34,0,7.64-1.38,9.88-4.1l4.17,4.56c-3.73,3.85-8.58,5.78-14.57,5.78-4.85,0-8.98-1.62-12.39-4.84-3.4-3.23-5.1-7.57-5.1-13.01s1.73-9.77,5.21-12.98c3.47-3.21,7.55-4.83,12.26-4.83s8.71,1.44,12,4.26c3.3,2.85,4.95,6.76,4.95,11.74v5.01ZM362.51,497.1h19.84c0-2.9-.92-5.15-2.73-6.7-1.82-1.56-4.07-2.34-6.73-2.34s-5.07.82-7.19,2.45c-2.13,1.62-3.19,3.83-3.19,6.6Z"/>
		<path class="st0" d="M403.62,498.21v18.73h-7.28v-34.61h7.28v6.31c1.05-2.12,2.61-3.79,4.72-5,2.1-1.22,4.37-1.83,6.8-1.83,5.46,0,9.17,2.27,11.12,6.77,3.42-4.5,7.7-6.77,12.81-6.77,3.9,0,7.06,1.21,9.47,3.58,2.41,2.4,3.61,5.85,3.61,10.35v21.21h-7.28v-19c0-6.37-2.65-9.56-7.94-9.56-2.47,0-4.63.79-6.47,2.37-1.85,1.59-2.81,3.89-2.89,6.93v19.26h-7.29v-19c0-3.29-.58-5.71-1.76-7.25-1.17-1.54-3.01-2.31-5.53-2.31s-4.7.83-6.58,2.5c-1.86,1.67-2.79,4.1-2.79,7.32Z"/>
		<path class="st0" d="M487.73,516.94h-6.64v-4.61c-2.86,3.42-6.69,5.13-11.51,5.13-3.61,0-6.58-1.02-8.95-3.06-2.35-2.03-3.54-4.75-3.54-8.16s1.26-5.94,3.77-7.64c2.51-1.69,5.91-2.54,10.21-2.54h9.43v-1.3c0-4.58-2.56-6.89-7.68-6.89-3.21,0-6.55,1.17-10.02,3.51l-3.25-4.56c4.21-3.33,8.98-5.01,14.31-5.01,4.07,0,7.4,1.04,9.98,3.1,2.58,2.06,3.87,5.31,3.87,9.73v22.31ZM480.45,504.05v-2.93h-8.2c-5.25,0-7.86,1.65-7.86,4.95,0,1.7.64,2.99,1.95,3.87,1.3.89,3.11,1.34,5.43,1.34s4.34-.66,6.08-1.96c1.74-1.3,2.61-3.05,2.61-5.27Z"/>
		<path class="st0" d="M503.87,488.18v17.56c0,1.65.44,2.96,1.3,3.94.86.97,2.08,1.45,3.64,1.45s3.06-.75,4.49-2.27l2.99,5.14c-2.56,2.3-5.38,3.45-8.49,3.45s-5.75-1.06-7.94-3.22c-2.19-2.15-3.28-5.04-3.28-8.68v-17.38h-4.36v-5.85h4.36v-10.87h7.28v10.87h9.1v5.85h-9.1Z"/>
		<path class="st0" d="M522.53,475.43c-.9-.91-1.37-1.99-1.37-3.25s.46-2.35,1.37-3.26c.91-.9,2-1.37,3.25-1.37s2.34.47,3.25,1.37c.91.91,1.37,2,1.37,3.26s-.46,2.34-1.37,3.25c-.91.91-1.99,1.37-3.25,1.37s-2.35-.46-3.25-1.37ZM529.37,516.94h-7.29v-34.61h7.29v34.61Z"/>
		<path class="st0" d="M553.96,517.45c-4.82,0-8.96-1.63-12.43-4.9-3.47-3.28-5.21-7.56-5.21-12.85s1.82-9.6,5.43-12.91c3.62-3.33,8.03-4.99,13.24-4.99s9.61,1.8,13.21,5.41l-4.29,5.26c-2.99-2.6-6-3.9-9.04-3.9s-5.67,1.02-7.91,3.03c-2.23,2.01-3.35,4.61-3.35,7.8s1.11,5.89,3.32,8.1c2.21,2.21,4.93,3.31,8.17,3.31s6.28-1.47,9.14-4.41l4.29,4.68c-4.21,4.24-9.07,6.37-14.57,6.37Z"/>
		<path class="st0" d="M600.47,506.59c0,3.31-1.19,5.94-3.57,7.91-2.39,1.97-5.44,2.95-9.17,2.95-2.52,0-5.13-.46-7.84-1.36-2.7-.91-5.11-2.2-7.19-3.84l3.51-5.67c4.03,3.04,7.94,4.55,11.71,4.55,1.65,0,2.95-.37,3.9-1.13.96-.76,1.44-1.73,1.44-2.9,0-1.74-2.31-3.3-6.9-4.68-.35-.13-.61-.22-.78-.26-7.19-1.96-10.8-5.2-10.8-9.76,0-3.21,1.25-5.78,3.74-7.71,2.5-1.94,5.74-2.91,9.73-2.91s7.77,1.18,11.32,3.52l-2.73,5.39c-2.82-1.86-5.88-2.79-9.17-2.79-1.74,0-3.15.31-4.23.94-1.09.63-1.63,1.57-1.63,2.83,0,1.13.57,1.95,1.69,2.48.78.39,1.88.76,3.29,1.1,1.4.35,2.65.69,3.73,1.04,1.09.34,2.14.73,3.16,1.17,1.02.43,2.11,1.04,3.28,1.83,2.34,1.56,3.51,3.98,3.51,7.27Z"/>
	</g>
	<g>
		<path class="st3" d="M127.5,181.72c0-15.96,12.95-28.9,28.91-28.9s28.88,12.94,28.88,28.9-12.93,28.9-28.88,28.9-28.91-12.94-28.91-28.9"/>
		<path class="st1" d="M156.99,81.69c-7.12,5.52-13.19,11.7-18.15,18.41-5.72,7.79-9.96,16.29-12.54,25.3-.47,4.58-4.31,8.01-8.84,8.01l-.84-.04c-1.85-.16-3.75-.25-5.69-.25-7.88,0-16.46,1.38-24.97,4.14-8.09,2.63-16.07,6.5-23.2,11.61,3.01,8.4,6.99,16.01,11.8,22.74,5.6,7.78,12.29,14.33,19.94,19.53,4.35,1.69,6.69,6.47,5.29,11-3.3,10.58-5.73,22.36-5.8,34.24-.04,7.63.88,15.35,3.12,22.88,9.12-.33,18.04-1.89,26.42-4.55,9.75-3.09,18.66-7.65,26.08-13.44,1.71-1.83,4.09-2.8,6.5-2.8,1.78,0,3.57.53,5.14,1.63,8.17,5.8,17.36,11.06,27.35,14.66,7.93,2.85,16.4,4.66,25.29,4.79,2.46-8.68,3.64-17.59,3.64-26.27-.02-10.45-1.78-20.63-5.1-29.74-2.36-4.27-.85-9.68,3.4-12.09,7.82-4.47,15.9-11.53,22.63-20.46,4.8-6.37,8.86-13.65,11.57-21.54-7.69-5.29-15.72-9.41-23.9-12.24-8.37-2.89-16.9-4.43-25.36-4.43-1.01,0-2.01.02-3.02.07l-.97.05c-3.93,0-7.51-2.6-8.61-6.55-2.58-9.3-7.13-18.7-13.58-27.28-4.81-6.4-10.69-12.35-17.61-17.4M157.11,94.16c3.59,3.22,6.86,6.8,9.8,10.71,5.51,7.32,9.66,15.65,11.99,24.07,2.22,8,9.58,13.6,17.89,13.6.54,0,1.08-.02,1.63-.07.79-.03,1.57-.05,2.35-.05,7.25,0,14.73,1.31,22.23,3.9,5.07,1.76,10.12,4.08,15.08,6.96-1.98,4.13-4.42,8.12-7.3,11.94-5.65,7.5-12.66,13.86-19.71,17.89-8.52,4.85-11.75,15.59-7.48,24.31,2.8,7.91,4.3,16.85,4.31,25.88,0,5.41-.5,10.79-1.48,16.06-4.8-.66-9.67-1.88-14.56-3.64-8.2-2.95-16.63-7.48-25.06-13.47-3.15-2.22-6.85-3.4-10.69-3.4-4.81,0-9.45,1.89-12.88,5.2-6.34,4.85-14.15,8.82-22.6,11.5-5.2,1.65-10.56,2.81-16.03,3.48-.68-4.02-1.01-8.23-.99-12.57.06-9.67,1.87-20.25,5.37-31.45,2.74-8.85-1.53-18.38-9.78-22.29-6.42-4.48-12.09-10.1-16.82-16.68-2.93-4.11-5.51-8.58-7.7-13.35,4.44-2.51,9.27-4.64,14.24-6.26,7.41-2.4,15.02-3.68,22-3.68,1.65,0,3.27.08,4.8.21.58.05,1.17.08,1.74.08,9.18,0,16.87-6.65,18.28-15.63,2.26-7.62,5.92-14.88,10.84-21.58,3.05-4.13,6.57-8.03,10.52-11.66"/>
		<path class="st2" d="M98.9,100.37c-2.45,8.69-3.63,17.59-3.63,26.28,0,2.72.12,5.41.36,8.07,3.23-.65,6.42-1.11,9.54-1.36-.18-2.23-.28-4.47-.28-6.72,0-5.4.5-10.78,1.49-16.07,4.8.66,9.67,1.88,14.55,3.64,2.67.96,5.36,2.08,8.07,3.38,1.2-2.95,2.6-5.85,4.16-8.67-2.91-1.39-5.91-2.65-8.97-3.75-7.93-2.86-16.39-4.67-25.3-4.8M215.68,100.68c-9.11.33-18.03,1.89-26.41,4.55-2.93.93-5.79,1.99-8.56,3.18,1.6,2.84,3.01,5.73,4.24,8.64,2.33-.98,4.74-1.86,7.24-2.66,5.19-1.65,10.56-2.82,16.03-3.49.67,4.02,1.01,8.22.98,12.58-.02,3.16-.22,6.41-.61,9.74,3.16.35,6.33.9,9.48,1.65.46-3.74.72-7.53.75-11.32.04-7.63-.87-15.36-3.13-22.88M172.08,112.71c-3.15,1.8-6.12,3.79-8.9,5.95-1.72,1.83-4.09,2.8-6.5,2.8-1.78,0-3.57-.53-5.13-1.63-3.15-2.24-6.45-4.39-9.88-6.4-1.6,2.83-2.98,5.75-4.14,8.73,2.81,1.68,5.63,3.52,8.46,5.52,3.14,2.22,6.84,3.39,10.68,3.39,4.81,0,9.44-1.88,12.88-5.2,2.12-1.62,4.37-3.13,6.75-4.52-1.21-2.95-2.62-5.84-4.23-8.66M207.01,142.74c-.83,3.97-1.89,8.05-3.19,12.21-2.73,8.85,1.53,18.38,9.79,22.29,1.02.71,2.02,1.45,3,2.22,2.54-1.89,5.01-4.04,7.38-6.41-1.82-1.5-3.72-2.92-5.68-4.25-4.35-1.69-6.7-6.47-5.3-11,1.34-4.29,2.54-8.78,3.48-13.4-3.18-.78-6.34-1.33-9.48-1.66M106.53,142.91c-3.12.23-6.32.68-9.55,1.36.84,4.19,1.97,8.26,3.38,12.12,2.36,4.28.84,9.68-3.41,12.1-2.67,1.52-5.36,3.34-8.02,5.44,2.28,2.37,4.69,4.56,7.24,6.56,1.83-1.36,3.69-2.58,5.54-3.64,8.51-4.85,11.75-15.6,7.48-24.32-1.1-3.07-1.98-6.3-2.67-9.62M231.03,179.61c-2.33,2.35-4.74,4.5-7.17,6.42,2.34,2.45,4.53,5.09,6.56,7.9,2.92,4.1,5.51,8.57,7.69,13.35-4.42,2.51-9.19,4.61-14.24,6.25-2.68.87-5.37,1.59-8.07,2.16.63,3.11,1.08,6.3,1.37,9.54,3.21-.65,6.45-1.5,9.67-2.55,8.09-2.63,16.06-6.5,23.2-11.61-3.01-8.4-6.99-16.02-11.79-22.74-2.24-3.1-4.64-6.02-7.22-8.72M81.75,180.34c-2.59,2.62-5.09,5.5-7.43,8.6-4.8,6.37-8.85,13.65-11.57,21.55,7.69,5.28,15.72,9.41,23.89,12.24,2.68.93,5.38,1.71,8.08,2.35.39-3.22.93-6.39,1.57-9.52-2.16-.53-4.33-1.18-6.5-1.93-5.06-1.75-10.11-4.08-15.08-6.96,1.98-4.12,4.42-8.12,7.3-11.94,2.1-2.79,4.39-5.42,6.81-7.83-2.47-2.03-4.83-4.22-7.06-6.56M195.33,216.91c-9.18,0-16.87,6.65-18.28,15.64-.52,1.76-1.13,3.5-1.79,5.23,2.85,1.69,5.7,3.22,8.54,4.57,1.03-2.56,1.94-5.15,2.7-7.8.46-4.57,4.3-8.02,8.83-8.02l.85.04c1.84.17,3.74.25,5.7.25s3.8-.08,5.74-.24c-.28-3.24-.73-6.43-1.37-9.55-1.48.11-2.94.16-4.38.16-1.66,0-3.28-.07-4.8-.21-.59-.06-1.17-.08-1.76-.08M105.77,217.21c-.67,3.24-1.19,6.42-1.56,9.51,2.59.28,5.18.43,7.76.43,1.02,0,2.03-.02,3.04-.07l.97-.06c3.93,0,7.52,2.6,8.61,6.54.87,3.11,1.95,6.22,3.24,9.31,3.02-1.28,5.92-2.73,8.63-4.32-1.02-2.5-1.89-5.03-2.6-7.57-2.22-8-9.57-13.59-17.89-13.59-.54,0-1.09.02-1.63.07-.79.03-1.59.05-2.38.05-2.05,0-4.12-.11-6.2-.32M171.12,246.51c-1.47,2.62-3.12,5.16-4.93,7.62-3.03,4.11-6.55,8.01-10.51,11.65-3.59-3.23-6.87-6.81-9.8-10.71-1.88-2.51-3.61-5.14-5.15-7.85-2.75,1.58-5.63,3.02-8.63,4.3,1.79,3.18,3.83,6.31,6.09,9.32,4.82,6.41,10.69,12.35,17.62,17.4,7.13-5.53,13.19-11.71,18.14-18.42,2.09-2.84,3.99-5.79,5.68-8.82-2.91-1.39-5.74-2.91-8.5-4.51"/>
		<path class="st0" d="M180.7,108.41c-2.99,1.29-5.88,2.72-8.63,4.3,1.61,2.81,3.03,5.71,4.24,8.65,2.72-1.59,5.59-3.03,8.62-4.31-1.23-2.91-2.63-5.81-4.24-8.65M133.17,108.92c-1.57,2.82-2.96,5.71-4.16,8.68,2.82,1.35,5.67,2.87,8.54,4.57,1.17-2.98,2.54-5.9,4.13-8.73-2.75-1.61-5.58-3.12-8.5-4.52M208.57,133.23c-.37,3.09-.88,6.27-1.57,9.51,3.14.32,6.31.87,9.48,1.66.65-3.13,1.19-6.3,1.57-9.52-3.15-.75-6.32-1.3-9.48-1.64M105.17,133.37c-3.12.25-6.31.7-9.54,1.35.29,3.24.74,6.43,1.36,9.55,3.22-.68,6.43-1.13,9.55-1.36-.64-3.1-1.1-6.3-1.36-9.54M223.98,173.05c-2.36,2.37-4.85,4.52-7.38,6.41,2.55,2,4.97,4.19,7.25,6.57,2.43-1.92,4.84-4.06,7.18-6.42-2.23-2.34-4.58-4.53-7.05-6.56M88.94,173.92c-2.44,1.91-4.85,4.07-7.17,6.42,2.22,2.34,4.58,4.53,7.04,6.56,2.37-2.37,4.85-4.53,7.37-6.41-2.55-2.01-4.97-4.2-7.24-6.57M96.29,215.56c-.64,3.12-1.18,6.3-1.57,9.51,3.16.75,6.33,1.31,9.49,1.65.37-3.1.88-6.28,1.57-9.52-3.14-.31-6.31-.87-9.49-1.65M215.8,215.68c-3.22.68-6.42,1.14-9.54,1.36.64,3.12,1.09,6.31,1.37,9.55,3.11-.26,6.31-.71,9.54-1.36-.28-3.24-.74-6.43-1.37-9.55M175.26,237.78c-1.18,2.98-2.56,5.9-4.14,8.73,2.74,1.61,5.58,3.12,8.5,4.51,1.58-2.82,2.96-5.72,4.18-8.67-2.84-1.35-5.69-2.88-8.54-4.57M136.48,238.57c-2.72,1.59-5.61,3.03-8.63,4.32,1.23,2.92,2.64,5.81,4.25,8.66,2.99-1.29,5.87-2.73,8.62-4.3-1.61-2.82-3.03-5.72-4.24-8.67"/>
	</g>
</svg>